<svg xmlns="http://www.w3.org/2000/svg" xmlns:xlink="http://www.w3.org/1999/xlink" width="50" height="50" viewBox="0 0 50 50">
  <defs>
    <clipPath id="clip-path">
      <circle id="Ellipse_18" data-name="Ellipse 18" cx="25" cy="25" r="25" transform="translate(2112 4108)" fill="#fff" stroke="#707070" stroke-width="1"/>
    </clipPath>
  </defs>
  <g id="Mask_Group_7" data-name="Mask Group 7" transform="translate(-2112 -4108)" clip-path="url(#clip-path)">
    <g id="providers-list" transform="translate(2112 4108)">
      <g id="linkedin">
        <rect id="Rectangle-2" width="50" height="50" rx="2.778" fill="#117eb8" stroke="#707070" stroke-width="0.694"/>
        <path id="Shape" d="M9.124,19.339h6.683v21.5H9.124v-21.5ZM12.467,8.651a3.874,3.874,0,1,1-3.875,3.874,3.876,3.876,0,0,1,3.875-3.874ZM20,19.338h6.41v2.938H26.5A7.022,7.022,0,0,1,32.82,18.8c6.767,0,8.017,4.453,8.017,10.243V40.84H34.158V30.384c0-2.493-.046-5.7-3.472-5.7-3.477,0-4.011,2.716-4.011,5.521V40.84H20v-21.5Z" fill="#fff" stroke="#707070" stroke-width="0.694" fill-rule="evenodd"/>
      </g>
    </g>
  </g>
</svg>
