<svg xmlns="http://www.w3.org/2000/svg" xmlns:xlink="http://www.w3.org/1999/xlink" width="50" height="50" viewBox="0 0 50 50">
  <defs>
    <clipPath id="clip-path">
      <circle id="Ellipse_13" data-name="Ellipse 13" cx="25" cy="25" r="25" transform="translate(2136 4233)" fill="#fff"/>
    </clipPath>
  </defs>
  <g id="Mask_Group_5" data-name="Mask Group 5" transform="translate(-2136 -4233)" clip-path="url(#clip-path)">
    <g id="fdf2d8270c6e3b01c68113000de0ea0a" transform="translate(2125.266 4232.806)">
      <circle id="Ellipse_17" data-name="Ellipse 17" cx="25" cy="25" r="25" transform="translate(10.734 0.194)" fill="#2daae1"/>
      <path id="Path_22" data-name="Path 22" d="M51.763,15.249a13.131,13.131,0,0,1-3.777,1.036,6.6,6.6,0,0,0,2.892-3.638,13.139,13.139,0,0,1-4.177,1.6,6.58,6.58,0,0,0-11.376,4.5,6.652,6.652,0,0,0,.169,1.5,18.674,18.674,0,0,1-13.556-6.871,6.583,6.583,0,0,0,2.035,8.78,6.547,6.547,0,0,1-2.979-.822v.083a6.58,6.58,0,0,0,5.275,6.448,6.543,6.543,0,0,1-1.733.231,6.675,6.675,0,0,1-1.238-.116,6.585,6.585,0,0,0,6.143,4.567A13.243,13.243,0,0,1,19.7,35.265a18.612,18.612,0,0,0,10.081,2.956c12.1,0,18.712-10.021,18.712-18.712q0-.428-.02-.851a13.4,13.4,0,0,0,3.286-3.409Z" fill="#fff"/>
    </g>
  </g>
</svg>
